{"accessors" : [{"bufferView" : 0, "byteOffset" : 0, "componentType" : 5123, "count" : 324, "type" : "SCALAR", "max" : [323], "min" : [0]}, {"bufferView" : 1, "byteOffset" : 0, "componentType" : 5126, "count" : 324, "type" : "VEC3", "max" : [0.3499999940395355, 0.2649998962879181, 0.7899995446205139], "min" : [-0.3499999940395355, -0.2649998962879181, 0], "name" : "POSITION"}, {"bufferView" : 1, "byteOffset" : 12, "componentType" : 5126, "count" : 324, "type" : "VEC3", "max" : [0.9641330242156982, 0.9641330242156982, 0.9721519947052002], "min" : [-0.9641330242156982, -0.964133083820343, -0.9721510410308838], "name" : "NORMAL"}, {"bufferView" : 1, "byteOffset" : 24, "componentType" : 5126, "count" : 324, "type" : "VEC2", "max" : [1, -0], "min" : [0, -1], "name" : "TEXCOORD_0"}], "asset" : {"generator" : "Aspose.3D 22.1", "version" : "2.0"}, "buffers" : [{"uri" : "data:application/octet-stream;base64,", "byteLength" : 11024}], "bufferViews" : [{"buffer" : 0, "byteOffset" : 0, "byteLength" : 648, "target" : 34963}, {"buffer" : 0, "byteOffset" : 652, "byteLength" : 10368, "byteStride" : 32, "target" : 34962}], "images" : [{"uri" : "C:\\Users\\shrey\\Desktop\\xr\\Day 3\\A2.jpg"}], "materials" : [{"name" : "", "pbrMetallicRoughness" : {"baseColorFactor" : [1, 0.027450980618596077, 0, 1], "baseColorTexture" : {"index" : 0, "texCoord" : 0}, "metallicFactor" : 0, "roughnessFactor" : 0}, "emissiveFactor" : [0, 0, 0], "alphaMode" : "OPAQUE", "doubleSided" : false}], "meshes" : [{"primitives" : [{"attributes" : {"POSITION" : 1, "NORMAL" : 2, "TEXCOORD_0" : 3}, "indices" : 0, "material" : 0, "mode" : 4}], "name" : ""}], "nodes" : [{"matrix" : [1, 0, 0, 0, 0, 2.220446049250313E-16, -1, 0, 0, 1, 2.220446049250313E-16, 0, -9.61555004119873, 0.07777756452560425, -0.6500416994094849, 1], "mesh" : 0, "name" : "ChamferBox048"}], "samplers" : [{"magFilter" : 9729, "minFilter" : 9729, "wrapS" : 10497, "wrapT" : 10497}], "scene" : 0, "scenes" : [{"nodes" : [0]}], "textures" : [{"sampler" : 0, "source" : 0}]}