{"accessors" : [{"bufferView" : 0, "byteOffset" : 0, "componentType" : 5123, "count" : 324, "type" : "SCALAR", "max" : [323], "min" : [0]}, {"bufferView" : 1, "byteOffset" : 0, "componentType" : 5126, "count" : 324, "type" : "VEC3", "max" : [0.3499999940395355, 0.2649998962879181, 0.7899995446205139], "min" : [-0.3499999940395355, -0.2649998962879181, 0], "name" : "POSITION"}, {"bufferView" : 1, "byteOffset" : 12, "componentType" : 5126, "count" : 324, "type" : "VEC3", "max" : [0.9641330242156982, 0.9641330242156982, 0.9721519947052002], "min" : [-0.9641330242156982, -0.964133083820343, -0.9721510410308838], "name" : "NORMAL"}, {"bufferView" : 1, "byteOffset" : 24, "componentType" : 5126, "count" : 324, "type" : "VEC2", "max" : [1, -0], "min" : [0, -1], "name" : "TEXCOORD_0"}, {"bufferView" : 0, "byteOffset" : 648, "componentType" : 5123, "count" : 4056, "type" : "SCALAR", "max" : [4055], "min" : [0]}, {"bufferView" : 2, "byteOffset" : 0, "componentType" : 5126, "count" : 4056, "type" : "VEC3", "max" : [-1.0628968477249146, 4.8137125968933105, 0.5], "min" : [-8.178415298461914, -1.8643615245819092, 0], "name" : "POSITION"}, {"bufferView" : 2, "byteOffset" : 12, "componentType" : 5126, "count" : 4056, "type" : "VEC3", "max" : [1.0000044107437134, 1.0000044107437134, 1.0000044107437134], "min" : [-1.0000044107437134, -1.0000044107437134, -1.0000044107437134], "name" : "NORMAL"}, {"bufferView" : 0, "byteOffset" : 8760, "componentType" : 5123, "count" : 1668, "type" : "SCALAR", "max" : [1667], "min" : [0]}, {"bufferView" : 3, "byteOffset" : 0, "componentType" : 5126, "count" : 1668, "type" : "VEC3", "max" : [-1.0480337142944336, -0.6237170696258545, 0.5], "min" : [-4.431168556213379, -4.003957271575928, 0], "name" : "POSITION"}, {"bufferView" : 3, "byteOffset" : 12, "componentType" : 5126, "count" : 1668, "type" : "VEC3", "max" : [1.0000044107437134, 1.0000044107437134, 1.0000044107437134], "min" : [-1.0000044107437134, -1.0000044107437134, -1.0000044107437134], "name" : "NORMAL"}], "asset" : {"generator" : "Aspose.3D 22.1", "version" : "2.0"}, "buffers" : [{"uri" : "data:application/octet-stream;base64,", "byteLength" : 159856}], "bufferViews" : [{"buffer" : 0, "byteOffset" : 0, "byteLength" : 12096, "target" : 34963}, {"buffer" : 0, "byteOffset" : 12100, "byteLength" : 10368, "byteStride" : 32, "target" : 34962}, {"buffer" : 0, "byteOffset" : 22472, "byteLength" : 97344, "byteStride" : 24, "target" : 34962}, {"buffer" : 0, "byteOffset" : 119820, "byteLength" : 40032, "byteStride" : 24, "target" : 34962}], "images" : [{}], "materials" : [{"name" : "", "pbrMetallicRoughness" : {"baseColorFactor" : [0.8078431487083435, 0.7803921699523926, 0.7803921699523926, 1], "metallicFactor" : 0, "roughnessFactor" : 0}, "emissiveFactor" : [0, 0, 0], "alphaMode" : "OPAQUE", "doubleSided" : false}, {"name" : "", "pbrMetallicRoughness" : {"baseColorFactor" : [1, 0.027450980618596077, 0, 1], "baseColorTexture" : {"index" : 0, "texCoord" : 0}, "metallicFactor" : 0, "roughnessFactor" : 0}, "emissiveFactor" : [0, 0, 0], "alphaMode" : "OPAQUE", "doubleSided" : false}, {"name" : "", "pbrMetallicRoughness" : {"baseColorFactor" : [1, 0.027450980618596077, 0, 1], "baseColorTexture" : {"index" : 0, "texCoord" : 0}, "metallicFactor" : 0, "roughnessFactor" : 0}, "emissiveFactor" : [0, 0, 0], "alphaMode" : "OPAQUE", "doubleSided" : false}], "meshes" : [{"primitives" : [{"attributes" : {"POSITION" : 1, "NORMAL" : 2, "TEXCOORD_0" : 3}, "indices" : 0, "material" : 0, "mode" : 4}], "name" : ""}, {"primitives" : [{"attributes" : {"POSITION" : 5, "NORMAL" : 6}, "indices" : 4, "material" : 1, "mode" : 4}], "name" : ""}, {"primitives" : [{"attributes" : {"POSITION" : 8, "NORMAL" : 9}, "indices" : 7, "material" : 2, "mode" : 4}], "name" : ""}], "nodes" : [{"matrix" : [1, 0, 0, 0, 0, 2.220446049250313E-16, -1, 0, 0, 1, 2.220446049250313E-16, 0, 0.0638764500617981, 0.07777756452560425, -0.05896653234958649, 1], "mesh" : 0, "name" : "ChamferBox048"}, {"matrix" : [0.05633799999999655, -4.098530161396677E-24, 1.9700898326187312E-08, 0, -8.6115365160530545E-16, 0.056337999999999944, 2.462612305884068E-09, 0, -1.9700898326187295E-08, -2.4626123058842187E-09, 0.0563379999999965, 0, 0.2974300942875919, 0.4542971402984229, -0.3360665554218371, 1], "mesh" : 1, "name" : "Line012"}, {"matrix" : [0.050853999999994216, -5.3842643606078455E-24, 2.424907684325896E-08, 0, -3.950676300072509E-15, 0.050853999999999316, 8.285168715341282E-09, 0, -8.750438690184435E-09, -2.989757562733417E-09, 0.018350999999997668, 0, 0.24712053279385976, 0.4267196101248238, -0.32656976103948976, 1], "mesh" : 2, "name" : "Object007"}], "samplers" : [{"magFilter" : 9729, "minFilter" : 9729, "wrapS" : 10497, "wrapT" : 10497}], "scene" : 0, "scenes" : [{"nodes" : [0, 1, 2]}], "textures" : [{"sampler" : 0, "source" : 0}]}