{"accessors":[{"bufferView":0,"componentType":5126,"count":36,"max":[1.0,-38.0,-52.0],"min":[-3.0,-53.0,-54.0],"type":"VEC3"},{"bufferView":1,"componentType":5126,"count":36,"type":"VEC3"},{"bufferView":2,"componentType":5125,"count":36,"type":"SCALAR"},{"bufferView":3,"componentType":5126,"count":36,"max":[1.0,-38.0,-55.0],"min":[-3.0,-53.0,-57.0],"type":"VEC3"},{"bufferView":4,"componentType":5126,"count":36,"type":"VEC3"},{"bufferView":5,"componentType":5125,"count":36,"type":"SCALAR"},{"bufferView":6,"componentType":5126,"count":228,"max":[0.0,-28.7946834564209,-30.890411376953125],"min":[-4.258577823638916,-62.40786361694336,-77.60964965820313],"type":"VEC3"},{"bufferView":7,"componentType":5126,"count":228,"type":"VEC3"},{"bufferView":8,"componentType":5126,"count":228,"type":"VEC2"},{"bufferView":9,"componentType":5125,"count":228,"type":"SCALAR"}],"asset":{"generator":"Luxion KeyShot","version":"2.0"},"bufferViews":[{"buffer":0,"byteLength":432,"byteOffset":0,"byteStride":12},{"buffer":0,"byteLength":432,"byteOffset":432,"byteStride":12},{"buffer":0,"byteLength":144,"byteOffset":864},{"buffer":0,"byteLength":432,"byteOffset":1008,"byteStride":12},{"buffer":0,"byteLength":432,"byteOffset":1440,"byteStride":12},{"buffer":0,"byteLength":144,"byteOffset":1872},{"buffer":0,"byteLength":2736,"byteOffset":2016,"byteStride":12},{"buffer":0,"byteLength":2736,"byteOffset":4752,"byteStride":12},{"buffer":0,"byteLength":1824,"byteOffset":7488,"byteStride":8},{"buffer":0,"byteLength":912,"byteOffset":9312}],"buffers":[{"byteLength":10224,"uri":"./Pause_button_resources/Pause_button.bin"}],"cameras":[{"name":"active","perspective":{"aspectRatio":1.0,"yfov":0.6911154697478635,"zfar":334.76568603515625,"znear":308.1412658691406},"type":"perspective"}],"images":[{"uri":"./Pause_button_resources/diffuse_Black_7_normal.png"}],"materials":[{"doubleSided":true,"pbrMetallicRoughness":{"baseColorFactor":[1.0,1.0,1.0,1.0],"metallicFactor":0.0,"roughnessFactor":0.0}},{"alphaMode":"BLEND","doubleSided":true,"normalTexture":{"index":0,"scale":-1},"pbrMetallicRoughness":{"baseColorFactor":[0.0,0.0,0.0,0.5436681509017944],"metallicFactor":0.0,"roughnessFactor":0.3162277638912201}}],"meshes":[{"name":"diffuse_Black-mesh","primitives":[{"attributes":{"NORMAL":1,"POSITION":0},"indices":2,"material":0,"mode":4}]},{"name":"diffuse_Black-mesh","primitives":[{"attributes":{"NORMAL":4,"POSITION":3},"indices":5,"material":0,"mode":4}]},{"name":"diffuse_Black-mesh","primitives":[{"attributes":{"NORMAL":7,"POSITION":6,"TEXCOORD_0":8},"indices":9,"material":1,"mode":4}]}],"nodes":[{"camera":0,"matrix":[-0.07749247090776398,-1.8192092238189517e-07,-0.9969929216482347,0.0,-0.12251876866793213,0.9924204662270579,0.009522737191466197,0.0,0.9894362092018127,0.12288828939199448,-0.07690513879060745,0.0,319.4945373535156,66.33139038085938,-23.777725219726563,1.0],"name":"active"},{"mesh":0,"name":"diffuse_Black"},{"mesh":1,"name":"diffuse_Black"},{"mesh":2,"name":"diffuse_Black"},{"children":[1,2,3],"matrix":[1.0,0.0,0.0,0.0,0.0,1.0,0.0,0.0,0.0,0.0,1.0,0.0,1.629288911819458,62.40786361694336,21.750030517578125,1.0],"name":"play pause"},{"children":[4],"name":"Default"},{"children":[5],"matrix":[0.001,0.0,0.0,0.0,0.0,0.001,0.0,0.0,0.0,0.0,0.001,0.0,0.0,0.0,0.0,1.0],"name":"lux_root"}],"samplers":[{"magFilter":9729,"minFilter":9987,"wrapS":10497,"wrapT":10497}],"scenes":[{"nodes":[0,6]}],"textures":[{"sampler":0,"source":0}]} 