{"accessors":[{"bufferView":0,"componentType":5126,"count":36,"max":[1.0,4.0,27.0],"min":[-3.0,-11.0,25.0],"type":"VEC3"},{"bufferView":1,"componentType":5126,"count":36,"type":"VEC3"},{"bufferView":2,"componentType":5125,"count":36,"type":"SCALAR"},{"bufferView":3,"componentType":5126,"count":24,"max":[1.0,3.8278090953826904,34.55616760253906],"min":[-3.0,-11.04784870147705,27.11833953857422],"type":"VEC3"},{"bufferView":4,"componentType":5126,"count":24,"type":"VEC3"},{"bufferView":5,"componentType":5125,"count":24,"type":"SCALAR"},{"bufferView":6,"componentType":5126,"count":24,"max":[1.0,3.8278090953826904,42.076171875],"min":[-3.0,-11.04784870147705,34.638343811035156],"type":"VEC3"},{"bufferView":7,"componentType":5126,"count":24,"type":"VEC3"},{"bufferView":8,"componentType":5125,"count":24,"type":"SCALAR"},{"bufferView":9,"componentType":5126,"count":228,"max":[0.0,13.205317497253418,57.109588623046875],"min":[-4.258577823638916,-20.407861709594727,10.390352249145508],"type":"VEC3"},{"bufferView":10,"componentType":5126,"count":228,"type":"VEC3"},{"bufferView":11,"componentType":5126,"count":228,"type":"VEC2"},{"bufferView":12,"componentType":5125,"count":228,"type":"SCALAR"}],"asset":{"generator":"Luxion KeyShot","version":"2.0"},"bufferViews":[{"buffer":0,"byteLength":432,"byteOffset":0,"byteStride":12},{"buffer":0,"byteLength":432,"byteOffset":432,"byteStride":12},{"buffer":0,"byteLength":144,"byteOffset":864},{"buffer":0,"byteLength":288,"byteOffset":1008,"byteStride":12},{"buffer":0,"byteLength":288,"byteOffset":1296,"byteStride":12},{"buffer":0,"byteLength":96,"byteOffset":1584},{"buffer":0,"byteLength":288,"byteOffset":1680,"byteStride":12},{"buffer":0,"byteLength":288,"byteOffset":1968,"byteStride":12},{"buffer":0,"byteLength":96,"byteOffset":2256},{"buffer":0,"byteLength":2736,"byteOffset":2352,"byteStride":12},{"buffer":0,"byteLength":2736,"byteOffset":5088,"byteStride":12},{"buffer":0,"byteLength":1824,"byteOffset":7824,"byteStride":8},{"buffer":0,"byteLength":912,"byteOffset":9648}],"buffers":[{"byteLength":10560,"uri":"./fastforward_button_resources/fastforward_button.bin"}],"cameras":[{"name":"active","perspective":{"aspectRatio":1.0,"yfov":0.6911154697478635,"zfar":334.76568603515625,"znear":308.1412658691406},"type":"perspective"}],"images":[{"uri":"./fastforward_button_resources/diffuse_Black_19_normal.png"}],"materials":[{"doubleSided":true,"pbrMetallicRoughness":{"baseColorFactor":[1.0,1.0,1.0,1.0],"metallicFactor":0.0,"roughnessFactor":0.0}},{"alphaMode":"BLEND","doubleSided":true,"normalTexture":{"index":0,"scale":-1},"pbrMetallicRoughness":{"baseColorFactor":[0.0,0.0,0.0,0.5436681509017944],"metallicFactor":0.0,"roughnessFactor":0.3162277638912201}}],"meshes":[{"name":"diffuse_Black-mesh","primitives":[{"attributes":{"NORMAL":1,"POSITION":0},"indices":2,"material":0,"mode":4}]},{"name":"diffuse_Black-mesh","primitives":[{"attributes":{"NORMAL":4,"POSITION":3},"indices":5,"material":0,"mode":4}]},{"name":"diffuse_Black-mesh","primitives":[{"attributes":{"NORMAL":7,"POSITION":6},"indices":8,"material":0,"mode":4}]},{"name":"diffuse_Black-mesh","primitives":[{"attributes":{"NORMAL":10,"POSITION":9,"TEXCOORD_0":11},"indices":12,"material":1,"mode":4}]}],"nodes":[{"camera":0,"matrix":[-0.07749247090776398,-1.8192092238189517e-07,-0.9969929216482347,0.0,-0.12251876866793213,0.9924204662270579,0.009522737191466197,0.0,0.9894362092018127,0.12288828939199448,-0.07690513879060745,0.0,319.4945373535156,66.33139038085938,-23.777725219726563,1.0],"name":"active"},{"mesh":0,"name":"diffuse_Black"},{"mesh":1,"name":"diffuse_Black"},{"mesh":2,"name":"diffuse_Black"},{"mesh":3,"name":"diffuse_Black"},{"children":[1,2,3,4],"matrix":[1.0,0.0,0.0,0.0,0.0,1.0,0.0,0.0,0.0,0.0,1.0,0.0,1.629288911819458,62.40786361694336,21.750030517578125,1.0],"name":"play pause"},{"children":[5],"name":"Default"},{"children":[6],"matrix":[0.001,0.0,0.0,0.0,0.0,0.001,0.0,0.0,0.0,0.0,0.001,0.0,0.0,0.0,0.0,1.0],"name":"lux_root"}],"samplers":[{"magFilter":9729,"minFilter":9987,"wrapS":10497,"wrapT":10497}],"scenes":[{"nodes":[0,7]}],"textures":[{"sampler":0,"source":0}]} 