{"accessors" : [{"bufferView" : 0, "byteOffset" : 0, "componentType" : 5123, "count" : 36, "type" : "SCALAR", "max" : [35], "min" : [0]}, {"bufferView" : 1, "byteOffset" : 0, "componentType" : 5126, "count" : 36, "type" : "VEC3", "max" : [1, -38, -52], "min" : [-3, -53, -54], "name" : "POSITION"}, {"bufferView" : 1, "byteOffset" : 12, "componentType" : 5126, "count" : 36, "type" : "VEC3", "max" : [1.0000044107437134, 1.0000044107437134, 1.0000044107437134], "min" : [-1.0000044107437134, -1.0000044107437134, -1.0000044107437134], "name" : "NORMAL"}, {"bufferView" : 0, "byteOffset" : 72, "componentType" : 5123, "count" : 36, "type" : "SCALAR", "max" : [35], "min" : [0]}, {"bufferView" : 2, "byteOffset" : 0, "componentType" : 5126, "count" : 36, "type" : "VEC3", "max" : [1, -38, -55], "min" : [-3, -53, -57], "name" : "POSITION"}, {"bufferView" : 2, "byteOffset" : 12, "componentType" : 5126, "count" : 36, "type" : "VEC3", "max" : [1.0000044107437134, 1.0000044107437134, 1.0000044107437134], "min" : [-1.0000044107437134, -1.0000044107437134, -1.0000044107437134], "name" : "NORMAL"}, {"bufferView" : 0, "byteOffset" : 144, "componentType" : 5123, "count" : 24, "type" : "SCALAR", "max" : [23], "min" : [0]}, {"bufferView" : 3, "byteOffset" : 0, "componentType" : 5126, "count" : 24, "type" : "VEC3", "max" : [1, -38.17219161987305, 6.556168079376221], "min" : [-3, -53.047847747802734, -0.8816608786582947], "name" : "POSITION"}, {"bufferView" : 3, "byteOffset" : 12, "componentType" : 5126, "count" : 24, "type" : "VEC3", "max" : [1.0000044107437134, 0.7071098685264587, 1.0000044107437134], "min" : [-1.0000044107437134, -0.7071098685264587, -0.7071098685264587], "name" : "NORMAL"}, {"bufferView" : 0, "byteOffset" : 192, "componentType" : 5123, "count" : 228, "type" : "SCALAR", "max" : [227], "min" : [0]}, {"bufferView" : 4, "byteOffset" : 0, "componentType" : 5126, "count" : 228, "type" : "VEC3", "max" : [0, -28.7946834564209, 27.109588623046875], "min" : [-4.258577823638916, -62.40786361694336, -19.609647750854492], "name" : "POSITION"}, {"bufferView" : 4, "byteOffset" : 12, "componentType" : 5126, "count" : 228, "type" : "VEC3", "max" : [1.0000044107437134, 1.0000044107437134, 1.0000044107437134], "min" : [-1.0000044107437134, -1.0000044107437134, -1.0000044107437134], "name" : "NORMAL"}, {"bufferView" : 4, "byteOffset" : 24, "componentType" : 5126, "count" : 228, "type" : "VEC2", "max" : [0.9999346137046814, -8.851755410432816E-05], "min" : [6.546452641487122E-05, -0.9999116063117981], "name" : "TEXCOORD_0"}, {"bufferView" : 0, "byteOffset" : 648, "componentType" : 5123, "count" : 228, "type" : "SCALAR", "max" : [227], "min" : [0]}, {"bufferView" : 5, "byteOffset" : 0, "componentType" : 5126, "count" : 228, "type" : "VEC3", "max" : [0, -28.7946834564209, -30.890411376953125], "min" : [-4.258577823638916, -62.40786361694336, -77.60964965820312], "name" : "POSITION"}, {"bufferView" : 5, "byteOffset" : 12, "componentType" : 5126, "count" : 228, "type" : "VEC3", "max" : [1.0000044107437134, 1.0000044107437134, 1.0000044107437134], "min" : [-1.0000044107437134, -1.0000044107437134, -1.0000044107437134], "name" : "NORMAL"}, {"bufferView" : 5, "byteOffset" : 24, "componentType" : 5126, "count" : 228, "type" : "VEC2", "max" : [0.999940037727356, -6.800144910812378E-05], "min" : [5.995621904730797E-05, -0.9999321103096008], "name" : "TEXCOORD_0"}, {"bufferView" : 0, "byteOffset" : 1104, "componentType" : 5123, "count" : 36, "type" : "SCALAR", "max" : [35], "min" : [0]}, {"bufferView" : 6, "byteOffset" : 0, "componentType" : 5126, "count" : 36, "type" : "VEC3", "max" : [1, 3.797455072402954, -68.50006103515625], "min" : [-3, -11.202545166015625, -70.50006103515625], "name" : "POSITION"}, {"bufferView" : 6, "byteOffset" : 12, "componentType" : 5126, "count" : 36, "type" : "VEC3", "max" : [1.0000044107437134, 1.0000044107437134, 1.0000044107437134], "min" : [-1.0000044107437134, -1.0000044107437134, -1.0000044107437134], "name" : "NORMAL"}, {"bufferView" : 0, "byteOffset" : 1176, "componentType" : 5123, "count" : 24, "type" : "SCALAR", "max" : [23], "min" : [0]}, {"bufferView" : 7, "byteOffset" : 0, "componentType" : 5126, "count" : 24, "type" : "VEC3", "max" : [1, 3.845303535461426, -70.61840057373047], "min" : [-3, -11.030354499816895, -78.05622863769531], "name" : "POSITION"}, {"bufferView" : 7, "byteOffset" : 12, "componentType" : 5126, "count" : 24, "type" : "VEC3", "max" : [1.0000044107437134, 0.7071098685264587, 0.7071098685264587], "min" : [-1.0000044107437134, -0.7071098685264587, -1.0000044107437134], "name" : "NORMAL"}, {"bufferView" : 0, "byteOffset" : 1224, "componentType" : 5123, "count" : 24, "type" : "SCALAR", "max" : [23], "min" : [0]}, {"bufferView" : 8, "byteOffset" : 0, "componentType" : 5126, "count" : 24, "type" : "VEC3", "max" : [1, 3.845303535461426, -78.1384048461914], "min" : [-3, -11.030354499816895, -85.57623291015625], "name" : "POSITION"}, {"bufferView" : 8, "byteOffset" : 12, "componentType" : 5126, "count" : 24, "type" : "VEC3", "max" : [1.0000044107437134, 0.7071098685264587, 0.7071098685264587], "min" : [-1.0000044107437134, -0.7071098685264587, -1.0000044107437134], "name" : "NORMAL"}, {"bufferView" : 0, "byteOffset" : 1272, "componentType" : 5123, "count" : 228, "type" : "SCALAR", "max" : [227], "min" : [0]}, {"bufferView" : 9, "byteOffset" : 0, "componentType" : 5126, "count" : 228, "type" : "VEC3", "max" : [0, 13.205317497253418, -53.890411376953125], "min" : [-4.258577823638916, -20.407861709594727, -100.60964965820312], "name" : "POSITION"}, {"bufferView" : 9, "byteOffset" : 12, "componentType" : 5126, "count" : 228, "type" : "VEC3", "max" : [1.0000044107437134, 1.0000044107437134, 1.0000044107437134], "min" : [-1.0000044107437134, -1.0000044107437134, -1.0000044107437134], "name" : "NORMAL"}, {"bufferView" : 9, "byteOffset" : 24, "componentType" : 5126, "count" : 228, "type" : "VEC2", "max" : [0.9999345541000366, -8.851755410432816E-05], "min" : [6.546452641487122E-05, -0.9999116063117981], "name" : "TEXCOORD_0"}, {"bufferView" : 0, "byteOffset" : 1728, "componentType" : 5123, "count" : 36, "type" : "SCALAR", "max" : [35], "min" : [0]}, {"bufferView" : 10, "byteOffset" : 0, "componentType" : 5126, "count" : 36, "type" : "VEC3", "max" : [1, 4, -24], "min" : [-3, -11, -26], "name" : "POSITION"}, {"bufferView" : 10, "byteOffset" : 12, "componentType" : 5126, "count" : 36, "type" : "VEC3", "max" : [1.0000044107437134, 1.0000044107437134, 1.0000044107437134], "min" : [-1.0000044107437134, -1.0000044107437134, -1.0000044107437134], "name" : "NORMAL"}, {"bufferView" : 0, "byteOffset" : 1800, "componentType" : 5123, "count" : 36, "type" : "SCALAR", "max" : [35], "min" : [0]}, {"bufferView" : 11, "byteOffset" : 0, "componentType" : 5126, "count" : 36, "type" : "VEC3", "max" : [1, 4, -21], "min" : [-3, -11, -23], "name" : "POSITION"}, {"bufferView" : 11, "byteOffset" : 12, "componentType" : 5126, "count" : 36, "type" : "VEC3", "max" : [1.0000044107437134, 1.0000044107437134, 1.0000044107437134], "min" : [-1.0000044107437134, -1.0000044107437134, -1.0000044107437134], "name" : "NORMAL"}, {"bufferView" : 0, "byteOffset" : 1872, "componentType" : 5123, "count" : 24, "type" : "SCALAR", "max" : [23], "min" : [0]}, {"bufferView" : 12, "byteOffset" : 0, "componentType" : 5126, "count" : 24, "type" : "VEC3", "max" : [1, 3.8278090953826904, -13.443832397460938], "min" : [-3, -11.04784870147705, -20.88166046142578], "name" : "POSITION"}, {"bufferView" : 12, "byteOffset" : 12, "componentType" : 5126, "count" : 24, "type" : "VEC3", "max" : [1.0000044107437134, 0.7071098685264587, 1.0000044107437134], "min" : [-1.0000044107437134, -0.7071098685264587, -0.7071098685264587], "name" : "NORMAL"}, {"bufferView" : 0, "byteOffset" : 1920, "componentType" : 5123, "count" : 228, "type" : "SCALAR", "max" : [227], "min" : [0]}, {"bufferView" : 13, "byteOffset" : 0, "componentType" : 5126, "count" : 228, "type" : "VEC3", "max" : [0, 13.205317497253418, 1.109588623046875], "min" : [-4.258577823638916, -20.407861709594727, -45.60964584350586], "name" : "POSITION"}, {"bufferView" : 13, "byteOffset" : 12, "componentType" : 5126, "count" : 228, "type" : "VEC3", "max" : [1.0000044107437134, 1.0000044107437134, 1.0000044107437134], "min" : [-1.0000044107437134, -1.0000044107437134, -1.0000044107437134], "name" : "NORMAL"}, {"bufferView" : 13, "byteOffset" : 24, "componentType" : 5126, "count" : 228, "type" : "VEC2", "max" : [0.9999346137046814, -8.851755410432816E-05], "min" : [6.546452641487122E-05, -0.9999114871025085], "name" : "TEXCOORD_0"}, {"bufferView" : 0, "byteOffset" : 2376, "componentType" : 5123, "count" : 36, "type" : "SCALAR", "max" : [35], "min" : [0]}, {"bufferView" : 14, "byteOffset" : 0, "componentType" : 5126, "count" : 36, "type" : "VEC3", "max" : [1, 4, 27], "min" : [-3, -11, 25], "name" : "POSITION"}, {"bufferView" : 14, "byteOffset" : 12, "componentType" : 5126, "count" : 36, "type" : "VEC3", "max" : [1.0000044107437134, 1.0000044107437134, 1.0000044107437134], "min" : [-1.0000044107437134, -1.0000044107437134, -1.0000044107437134], "name" : "NORMAL"}, {"bufferView" : 0, "byteOffset" : 2448, "componentType" : 5123, "count" : 24, "type" : "SCALAR", "max" : [23], "min" : [0]}, {"bufferView" : 15, "byteOffset" : 0, "componentType" : 5126, "count" : 24, "type" : "VEC3", "max" : [1, 3.8278090953826904, 34.55616760253906], "min" : [-3, -11.04784870147705, 27.11833953857422], "name" : "POSITION"}, {"bufferView" : 15, "byteOffset" : 12, "componentType" : 5126, "count" : 24, "type" : "VEC3", "max" : [1.0000044107437134, 0.7071098685264587, 1.0000044107437134], "min" : [-1.0000044107437134, -0.7071098685264587, -0.7071098685264587], "name" : "NORMAL"}, {"bufferView" : 0, "byteOffset" : 2496, "componentType" : 5123, "count" : 24, "type" : "SCALAR", "max" : [23], "min" : [0]}, {"bufferView" : 16, "byteOffset" : 0, "componentType" : 5126, "count" : 24, "type" : "VEC3", "max" : [1, 3.8278090953826904, 42.076171875], "min" : [-3, -11.04784870147705, 34.638343811035156], "name" : "POSITION"}, {"bufferView" : 16, "byteOffset" : 12, "componentType" : 5126, "count" : 24, "type" : "VEC3", "max" : [1.0000044107437134, 0.7071098685264587, 1.0000044107437134], "min" : [-1.0000044107437134, -0.7071098685264587, -0.7071098685264587], "name" : "NORMAL"}, {"bufferView" : 0, "byteOffset" : 2544, "componentType" : 5123, "count" : 228, "type" : "SCALAR", "max" : [227], "min" : [0]}, {"bufferView" : 17, "byteOffset" : 0, "componentType" : 5126, "count" : 228, "type" : "VEC3", "max" : [0, 13.205317497253418, 57.109588623046875], "min" : [-4.258577823638916, -20.407861709594727, 10.390352249145508], "name" : "POSITION"}, {"bufferView" : 17, "byteOffset" : 12, "componentType" : 5126, "count" : 228, "type" : "VEC3", "max" : [1.0000044107437134, 1.0000044107437134, 1.0000044107437134], "min" : [-1.0000044107437134, -1.0000044107437134, -1.0000044107437134], "name" : "NORMAL"}, {"bufferView" : 17, "byteOffset" : 24, "componentType" : 5126, "count" : 228, "type" : "VEC2", "max" : [0.9999346137046814, -8.851755410432816E-05], "min" : [6.546452641487122E-05, -0.9999116063117981], "name" : "TEXCOORD_0"}], "asset" : {"generator" : "Aspose.3D 22.1", "version" : "2.0"}, "buffers" : [{"uri" : "data:application/octet-stream;base64,", "byteLength" : 48192}], "bufferViews" : [{"buffer" : 0, "byteOffset" : 0, "byteLength" : 3000, "target" : 34963}, {"buffer" : 0, "byteOffset" : 3004, "byteLength" : 864, "byteStride" : 24, "target" : 34962}, {"buffer" : 0, "byteOffset" : 3872, "byteLength" : 864, "byteStride" : 24, "target" : 34962}, {"buffer" : 0, "byteOffset" : 4740, "byteLength" : 576, "byteStride" : 24, "target" : 34962}, {"buffer" : 0, "byteOffset" : 5320, "byteLength" : 7296, "byteStride" : 32, "target" : 34962}, {"buffer" : 0, "byteOffset" : 12620, "byteLength" : 7296, "byteStride" : 32, "target" : 34962}, {"buffer" : 0, "byteOffset" : 19920, "byteLength" : 864, "byteStride" : 24, "target" : 34962}, {"buffer" : 0, "byteOffset" : 20788, "byteLength" : 576, "byteStride" : 24, "target" : 34962}, {"buffer" : 0, "byteOffset" : 21368, "byteLength" : 576, "byteStride" : 24, "target" : 34962}, {"buffer" : 0, "byteOffset" : 21948, "byteLength" : 7296, "byteStride" : 32, "target" : 34962}, {"buffer" : 0, "byteOffset" : 29248, "byteLength" : 864, "byteStride" : 24, "target" : 34962}, {"buffer" : 0, "byteOffset" : 30116, "byteLength" : 864, "byteStride" : 24, "target" : 34962}, {"buffer" : 0, "byteOffset" : 30984, "byteLength" : 576, "byteStride" : 24, "target" : 34962}, {"buffer" : 0, "byteOffset" : 31564, "byteLength" : 7296, "byteStride" : 32, "target" : 34962}, {"buffer" : 0, "byteOffset" : 38864, "byteLength" : 864, "byteStride" : 24, "target" : 34962}, {"buffer" : 0, "byteOffset" : 39732, "byteLength" : 576, "byteStride" : 24, "target" : 34962}, {"buffer" : 0, "byteOffset" : 40312, "byteLength" : 576, "byteStride" : 24, "target" : 34962}, {"buffer" : 0, "byteOffset" : 40892, "byteLength" : 7296, "byteStride" : 32, "target" : 34962}], "cameras" : [{"perspective" : {"aspectRatio" : 1, "yfov" : 0.6911154697478636, "zfar" : 352.9938659667969, "znear" : 216.86044311523438}, "type" : "perspective", "name" : ""}], "images" : [{"uri" : "data:image/png;base64,"}, {"uri" : "data:image/png;base64,"}, {"uri" : "data:image/png;base64,"}, {"uri" : "data:image/png;base64,"}, {"uri" : "data:image/png;base64,"}], "materials" : [{"pbrMetallicRoughness" : {"baseColorFactor" : [1, 1, 1, 1], "metallicFactor" : 0, "roughnessFactor" : 0}, "emissiveFactor" : [0, 0, 0], "alphaMode" : "OPAQUE", "doubleSided" : true}, {"pbrMetallicRoughness" : {"baseColorFactor" : [1, 1, 1, 1], "metallicFactor" : 0, "roughnessFactor" : 0}, "emissiveFactor" : [0, 0, 0], "alphaMode" : "OPAQUE", "doubleSided" : true}, {"pbrMetallicRoughness" : {"baseColorFactor" : [1, 1, 1, 1], "metallicFactor" : 0, "roughnessFactor" : 0}, "emissiveFactor" : [0, 0, 0], "alphaMode" : "OPAQUE", "doubleSided" : true}, {"pbrMetallicRoughness" : {"baseColorFactor" : [0, 0, 0, 0.5436681509017944], "metallicFactor" : 0, "roughnessFactor" : 0.3162277638912201}, "normalTexture" : {"index" : 0, "texCoord" : 0, "scale" : 1}, "emissiveFactor" : [0, 0, 0], "alphaMode" : "BLEND", "doubleSided" : true}, {"pbrMetallicRoughness" : {"baseColorFactor" : [0, 0, 0, 0.5436681509017944], "metallicFactor" : 0, "roughnessFactor" : 0.3162277638912201}, "normalTexture" : {"index" : 1, "texCoord" : 0, "scale" : 1}, "emissiveFactor" : [0, 0, 0], "alphaMode" : "BLEND", "doubleSided" : true}, {"pbrMetallicRoughness" : {"baseColorFactor" : [1, 1, 1, 1], "metallicFactor" : 0, "roughnessFactor" : 0}, "emissiveFactor" : [0, 0, 0], "alphaMode" : "OPAQUE", "doubleSided" : true}, {"pbrMetallicRoughness" : {"baseColorFactor" : [1, 1, 1, 1], "metallicFactor" : 0, "roughnessFactor" : 0}, "emissiveFactor" : [0, 0, 0], "alphaMode" : "OPAQUE", "doubleSided" : true}, {"pbrMetallicRoughness" : {"baseColorFactor" : [1, 1, 1, 1], "metallicFactor" : 0, "roughnessFactor" : 0}, "emissiveFactor" : [0, 0, 0], "alphaMode" : "OPAQUE", "doubleSided" : true}, {"pbrMetallicRoughness" : {"baseColorFactor" : [0, 0, 0, 0.5436681509017944], "metallicFactor" : 0, "roughnessFactor" : 0.3162277638912201}, "normalTexture" : {"index" : 2, "texCoord" : 0, "scale" : 1}, "emissiveFactor" : [0, 0, 0], "alphaMode" : "BLEND", "doubleSided" : true}, {"pbrMetallicRoughness" : {"baseColorFactor" : [1, 1, 1, 1], "metallicFactor" : 0, "roughnessFactor" : 0}, "emissiveFactor" : [0, 0, 0], "alphaMode" : "OPAQUE", "doubleSided" : true}, {"pbrMetallicRoughness" : {"baseColorFactor" : [1, 1, 1, 1], "metallicFactor" : 0, "roughnessFactor" : 0}, "emissiveFactor" : [0, 0, 0], "alphaMode" : "OPAQUE", "doubleSided" : true}, {"pbrMetallicRoughness" : {"baseColorFactor" : [1, 1, 1, 1], "metallicFactor" : 0, "roughnessFactor" : 0}, "emissiveFactor" : [0, 0, 0], "alphaMode" : "OPAQUE", "doubleSided" : true}, {"pbrMetallicRoughness" : {"baseColorFactor" : [0, 0, 0, 0.5436681509017944], "metallicFactor" : 0, "roughnessFactor" : 0.3162277638912201}, "normalTexture" : {"index" : 3, "texCoord" : 0, "scale" : 1}, "emissiveFactor" : [0, 0, 0], "alphaMode" : "BLEND", "doubleSided" : true}, {"pbrMetallicRoughness" : {"baseColorFactor" : [1, 1, 1, 1], "metallicFactor" : 0, "roughnessFactor" : 0}, "emissiveFactor" : [0, 0, 0], "alphaMode" : "OPAQUE", "doubleSided" : true}, {"pbrMetallicRoughness" : {"baseColorFactor" : [1, 1, 1, 1], "metallicFactor" : 0, "roughnessFactor" : 0}, "emissiveFactor" : [0, 0, 0], "alphaMode" : "OPAQUE", "doubleSided" : true}, {"pbrMetallicRoughness" : {"baseColorFactor" : [1, 1, 1, 1], "metallicFactor" : 0, "roughnessFactor" : 0}, "emissiveFactor" : [0, 0, 0], "alphaMode" : "OPAQUE", "doubleSided" : true}, {"pbrMetallicRoughness" : {"baseColorFactor" : [0, 0, 0, 0.5436681509017944], "metallicFactor" : 0, "roughnessFactor" : 0.3162277638912201}, "normalTexture" : {"index" : 4, "texCoord" : 0, "scale" : 1}, "emissiveFactor" : [0, 0, 0], "alphaMode" : "BLEND", "doubleSided" : true}], "meshes" : [{"primitives" : [{"attributes" : {"POSITION" : 1, "NORMAL" : 2}, "indices" : 0, "material" : 0, "mode" : 4}]}, {"primitives" : [{"attributes" : {"POSITION" : 4, "NORMAL" : 5}, "indices" : 3, "material" : 1, "mode" : 4}]}, {"primitives" : [{"attributes" : {"POSITION" : 7, "NORMAL" : 8}, "indices" : 6, "material" : 2, "mode" : 4}]}, {"primitives" : [{"attributes" : {"POSITION" : 10, "NORMAL" : 11, "TEXCOORD_0" : 12}, "indices" : 9, "material" : 3, "mode" : 4}]}, {"primitives" : [{"attributes" : {"POSITION" : 14, "NORMAL" : 15, "TEXCOORD_0" : 16}, "indices" : 13, "material" : 4, "mode" : 4}]}, {"primitives" : [{"attributes" : {"POSITION" : 18, "NORMAL" : 19}, "indices" : 17, "material" : 5, "mode" : 4}]}, {"primitives" : [{"attributes" : {"POSITION" : 21, "NORMAL" : 22}, "indices" : 20, "material" : 6, "mode" : 4}]}, {"primitives" : [{"attributes" : {"POSITION" : 24, "NORMAL" : 25}, "indices" : 23, "material" : 7, "mode" : 4}]}, {"primitives" : [{"attributes" : {"POSITION" : 27, "NORMAL" : 28, "TEXCOORD_0" : 29}, "indices" : 26, "material" : 8, "mode" : 4}]}, {"primitives" : [{"attributes" : {"POSITION" : 31, "NORMAL" : 32}, "indices" : 30, "material" : 9, "mode" : 4}]}, {"primitives" : [{"attributes" : {"POSITION" : 34, "NORMAL" : 35}, "indices" : 33, "material" : 10, "mode" : 4}]}, {"primitives" : [{"attributes" : {"POSITION" : 37, "NORMAL" : 38}, "indices" : 36, "material" : 11, "mode" : 4}]}, {"primitives" : [{"attributes" : {"POSITION" : 40, "NORMAL" : 41, "TEXCOORD_0" : 42}, "indices" : 39, "material" : 12, "mode" : 4}]}, {"primitives" : [{"attributes" : {"POSITION" : 44, "NORMAL" : 45}, "indices" : 43, "material" : 13, "mode" : 4}]}, {"primitives" : [{"attributes" : {"POSITION" : 47, "NORMAL" : 48}, "indices" : 46, "material" : 14, "mode" : 4}]}, {"primitives" : [{"attributes" : {"POSITION" : 50, "NORMAL" : 51}, "indices" : 49, "material" : 15, "mode" : 4}]}, {"primitives" : [{"attributes" : {"POSITION" : 53, "NORMAL" : 54, "TEXCOORD_0" : 55}, "indices" : 52, "material" : 16, "mode" : 4}]}], "nodes" : [{"camera" : 0, "matrix" : [-0.7737789122864955, -1.874372546062375E-07, -0.6334557775677555, 0, -0.10457517352530882, 0.9862790860905493, 0.12774037592306225, 0, 0.6247641444206238, 0.1650865525007248, -0.7631619572639465, 0, 173.66351318359375, 84.27201843261719, -221.1294708251953, 1], "name" : "active"}, {"mesh" : 0, "name" : "diffuse_Black"}, {"mesh" : 1, "name" : "diffuse_Black"}, {"mesh" : 2, "name" : "diffuse_Black"}, {"mesh" : 3, "name" : "diffuse_Black"}, {"mesh" : 4, "name" : "diffuse_Black"}, {"mesh" : 5, "name" : "diffuse_Black"}, {"mesh" : 6, "name" : "diffuse_Black"}, {"mesh" : 7, "name" : "diffuse_Black"}, {"mesh" : 8, "name" : "diffuse_Black"}, {"mesh" : 9, "name" : "diffuse_Black"}, {"mesh" : 10, "name" : "diffuse_Black"}, {"mesh" : 11, "name" : "diffuse_Black"}, {"mesh" : 12, "name" : "diffuse_Black"}, {"mesh" : 13, "name" : "diffuse_Black"}, {"mesh" : 14, "name" : "diffuse_Black"}, {"mesh" : 15, "name" : "diffuse_Black"}, {"mesh" : 16, "name" : "diffuse_Black"}, {"children" : [1, 2, 3, 4, 5, 6, 7, 8, 9, 10, 11, 12, 13, 14, 15, 16, 17], "matrix" : [1, 0, 0, 0, 0, 1, 0, 0, 0, 0, 1, 0, 1.629288911819458, 62.40786361694336, 21.750030517578125, 1], "name" : "play pause"}, {"children" : [18], "name" : "Default"}, {"children" : [19], "matrix" : [0.001, 0, 0, 0, 0, 0.001, 0, 0, 0, 0, 0.001, 0, 0, 0, 0, 1], "name" : "lux_root"}], "samplers" : [{"magFilter" : 9729, "minFilter" : 9987, "wrapS" : 10497, "wrapT" : 10497}, {"magFilter" : 9729, "minFilter" : 9987, "wrapS" : 10497, "wrapT" : 10497}, {"magFilter" : 9729, "minFilter" : 9987, "wrapS" : 10497, "wrapT" : 10497}, {"magFilter" : 9729, "minFilter" : 9987, "wrapS" : 10497, "wrapT" : 10497}, {"magFilter" : 9729, "minFilter" : 9987, "wrapS" : 10497, "wrapT" : 10497}], "scene" : 0, "scenes" : [{"nodes" : [0, 20]}], "textures" : [{"sampler" : 0, "source" : 0}, {"sampler" : 1, "source" : 1}, {"sampler" : 2, "source" : 2}, {"sampler" : 3, "source" : 3}, {"sampler" : 4, "source" : 4}]}