{"accessors":[{"bufferView":0,"componentType":5126,"count":36,"max":[4.707982540130615,19.811216354370117,-34.84773635864258],"min":[0.0,-29.628002166748047,-119.6006851196289],"type":"VEC3"},{"bufferView":1,"componentType":5126,"count":36,"type":"VEC3"},{"bufferView":2,"componentType":5126,"count":36,"type":"VEC2"},{"bufferView":3,"componentType":5125,"count":36,"type":"SCALAR"}],"asset":{"generator":"Luxion KeyShot","version":"2.0"},"bufferViews":[{"buffer":0,"byteLength":432,"byteOffset":0,"byteStride":12},{"buffer":0,"byteLength":432,"byteOffset":432,"byteStride":12},{"buffer":0,"byteLength":288,"byteOffset":864,"byteStride":8},{"buffer":0,"byteLength":144,"byteOffset":1152}],"buffers":[{"byteLength":1296,"uri":"./rectangle_screen_resources/rectangle_screen.bin"}],"cameras":[{"name":"active","perspective":{"aspectRatio":1.0,"yfov":0.6911154697478635,"zfar":319.73809814453125,"znear":272.6331787109375},"type":"perspective"}],"images":[{"uri":"./rectangle_screen_resources/diffuse_Black_21_normal.png"}],"materials":[{"alphaMode":"BLEND","doubleSided":true,"normalTexture":{"index":0,"scale":-1},"pbrMetallicRoughness":{"baseColorFactor":[0.0,0.0,0.0,0.5436687469482422],"metallicFactor":0.0,"roughnessFactor":0.3162277638912201}}],"meshes":[{"name":"diffuse_Black-mesh","primitives":[{"attributes":{"NORMAL":1,"POSITION":0,"TEXCOORD_0":2},"indices":3,"material":0,"mode":4}]}],"nodes":[{"camera":0,"matrix":[-0.24003990218666194,-1.819193207186487e-07,-0.970763058337368,0.0,-0.05402110151039071,0.998450494457447,0.01335757286370469,0.0,0.9692587852478027,0.05564803630113602,-0.23966795206069946,0.0,287.65240478515625,54.55225372314453,-68.61225891113281,1.0],"name":"active"},{"mesh":0,"name":"diffuse_Black"},{"children":[1],"matrix":[1.0,0.0,0.0,0.0,0.0,1.0,0.0,0.0,0.0,0.0,1.0,0.0,-2.3539912700653076,29.628002166748047,46.2276611328125,1.0],"name":"Untitled"},{"children":[2],"name":"Default"},{"children":[3],"matrix":[0.001,0.0,0.0,0.0,0.0,0.001,0.0,0.0,0.0,0.0,0.001,0.0,0.0,0.0,0.0,1.0],"name":"lux_root"}],"samplers":[{"magFilter":9729,"minFilter":9987,"wrapS":10497,"wrapT":10497}],"scenes":[{"nodes":[0,4]}],"textures":[{"sampler":0,"source":0}]}  