{"accessors" : [{"bufferView" : 0, "byteOffset" : 0, "componentType" : 5123, "count" : 1668, "type" : "SCALAR", "max" : [1667], "min" : [0]}, {"bufferView" : 1, "byteOffset" : 0, "componentType" : 5126, "count" : 1668, "type" : "VEC3", "max" : [-1.0480337142944336, -0.6237170696258545, 0.5], "min" : [-4.431168556213379, -4.003957271575928, 0], "name" : "POSITION"}, {"bufferView" : 1, "byteOffset" : 12, "componentType" : 5126, "count" : 1668, "type" : "VEC3", "max" : [1.0000044107437134, 1.0000044107437134, 1.0000044107437134], "min" : [-1.0000044107437134, -1.0000044107437134, -1.0000044107437134], "name" : "NORMAL"}], "asset" : {"generator" : "Aspose.3D 22.1", "version" : "2.0"}, "buffers" : [{"uri" : "data:application/octet-stream;base64,", "byteLength" : 43376}], "bufferViews" : [{"buffer" : 0, "byteOffset" : 0, "byteLength" : 3336, "target" : 34963}, {"buffer" : 0, "byteOffset" : 3340, "byteLength" : 40032, "byteStride" : 24, "target" : 34962}], "materials" : [{"name" : "", "pbrMetallicRoughness" : {"baseColorFactor" : [1, 0.027450980618596077, 0, 1], "metallicFactor" : 0, "roughnessFactor" : 0}, "emissiveFactor" : [0, 0, 0], "alphaMode" : "OPAQUE", "doubleSided" : false}], "meshes" : [{"primitives" : [{"attributes" : {"POSITION" : 1, "NORMAL" : 2}, "indices" : 0, "material" : 0, "mode" : 4}], "name" : ""}], "nodes" : [{"matrix" : [0.1256389999999857, -9.976632405386026E-24, 5.99093437194756E-08, 0, -9.760471163606254E-15, 0.12563899999999834, 2.0469191642621696E-08, 0, -2.161836624145233E-08, -7.386334987556772E-09, 0.045336999999994236, 0, 0.341569493285891, 0.763389608261136, -0.274746332579621, 1], "mesh" : 0, "name" : "Object007"}], "scene" : 0, "scenes" : [{"nodes" : [0]}]}